<?xml version="1.0" encoding="UTF-8"?>
<svg viewBox="0 0 307.59415 210.84375" xmlns="http://www.w3.org/2000/svg">
 <defs>
  <linearGradient id="d" x1="182" x2="187" y1="119.36" y2="278.88" gradientUnits="userSpaceOnUse">
   <stop stop-color="#c17d11" offset="0"/>
   <stop stop-color="#8f5902" offset="1"/>
  </linearGradient>
  <linearGradient id="c" x1="-8" x2="213.27" y1="132.36" y2="301.57" gradientUnits="userSpaceOnUse">
   <stop stop-color="#06712e" offset="0"/>
   <stop stop-color="#63a67c" offset="1"/>
  </linearGradient>
  <linearGradient id="b" x1="-819.95" x2="-378.27" y1="798.37" y2="804.7" gradientUnits="userSpaceOnUse">
   <stop offset="0"/>
   <stop stop-color="#5d5c5c" offset=".16709"/>
   <stop offset=".30664"/>
   <stop stop-color="#7c7c7c" offset=".50633"/>
   <stop offset=".64588"/>
   <stop stop-color="#ccc" offset=".80294"/>
   <stop offset=".89264"/>
   <stop stop-opacity="0" offset="1"/>
  </linearGradient>
  <linearGradient id="a" x2="0" y1="593.53" y2="792.38" gradientUnits="userSpaceOnUse">
   <stop stop-color="#c5913e" offset="0"/>
   <stop stop-color="#8f5902" offset=".15562"/>
   <stop stop-color="#8f5902" stop-opacity=".61176" offset=".48325"/>
   <stop stop-color="#8f5902" offset=".59791"/>
   <stop stop-color="#8f5902" stop-opacity="0" offset="1"/>
  </linearGradient>
 </defs>
 <g transform="translate(105.03 -95.875)">
  <path d="m-97.216 105.44h276.49v167.14h-276.49z" fill="url(#c)"/>
  <path d="m-104 95.875v183h291v-183h-291zm10 10h271v163h-271v-163z" fill="url(#d)"/>
  <path d="m-104 95.875v1.1875l10 10.094v-1.2812h0.09375l-9.875-10h-0.21875z" fill="#e9b96e"/>
  <path d="m-103.88 95.875 9.875 10h1.4062l-9.875-10h-1.4062z" fill="#8f5902"/>
  <path d="m-104 278.63v-1.1875l10-10.094v1.2812h0.09375l-9.875 10h-0.21875z" fill="#784b02"/>
  <path d="m-103.88 278.8 9.875-10h1.4062l-9.875 10h-1.4062z" fill="#c17d11"/>
  <path d="m187.14 95.875v1.1875l-10 10.094v-1.2812h-0.0937l9.875-10h0.21875z" fill="#e9b96e"/>
  <path d="m187.02 95.875-9.875 10h-1.4062l9.875-10h1.4062z" fill="#8f5902"/>
  <path d="m187.14 278.63v-1.1875l-10-10.094v1.2812h-0.0937l9.875 10h0.21875z" fill="#784b02"/>
  <path d="m187.02 278.8-9.875-10h-1.4062l9.875 10h1.4062z" fill="#c17d11"/>
  <path d="m-95.121 104.52 0.70711 165.47 4-0.7071 0.7071-156.77h267v-8h-272.41z" fill="#2e3436" opacity=".38314"/>
  <path d="m178.34 104.53-4 0.6875v0.65625h2.6562v163h-270.34v1.125h272.41l-0.71875-165.47z" fill="#eeeeec" opacity=".38314"/>
  <path d="m121.53125,97c-2.56107.015-5.14347.28228-7.71875.59375 1.70338.1135 3.38351.28282 5.0625.5 3.51054.335 6.99948.17736 10.46875-.0625-2.5823-.78348-5.18115-1.04666-7.8125-1.03125zm7.8125,1.03125 .21875.0625c6.61914-.39429 13.18906-.08028 19.75.125-6.58802-1.48109-13.25065-.65198-19.96875-.1875zm19.96875.1875c.76572.17214 1.51704.38579 2.28125.625 .78001-.2028 1.60101-.36693 2.4375-.5-1.57162-.02122-3.14861-.07587-4.71875-.125zm4.71875.125c3.43448.04638 6.85678.01971 10.3125-.25 4.02535-.16438 7.87459.26928 11.8125.1875-7.32517-.06539-15.52404-.98759-22.125.0625zm-40.21875-.75c-5.53732-.36895-11.15654-.22053-16.65625.3125 2.14661.11891 4.29446.28272 6.46875.5625 3.37071-.0069 6.77688-.4625 10.1875-.875zm-16.65625.3125c-5.89728-.32667-11.72122-.14096-17.59375.1875 3.20829.26756 6.41144.59794 9.625.84375 2.5987-.4233 5.28073-.77073 7.96875-1.03125zm-17.59375.1875c-6.09362-.50818-12.16383-.76964-18.09375.21875-.71095.05396-1.41592.08499-2.125.125 4.69586.52976 9.35583.90986 13.84375.0625 2.13768-.13108 4.25797-.28784 6.375-.40625zm-20.21875.34375c-6.6919-.75494-13.49693-1.82937-20.15625-.125-.22123.031-.43484.03629-.65625.0625 6.95539.21211 13.84952.45543 20.8125.0625zm-20.8125-.0625c-3.58186-.10923-7.16987-.21885-10.8125-.21875-1.39008-.13162-2.78859-.14548-4.1875-.15625 5.04665.41006 10.04984.96097 15,.375zm-15-.375c-4.71085-.38277-9.44208-.63162-14.25.375-7.36124-.9312-14.77906-.52687-22.15625-.1875 5.0285.08669 10.03556.13477 14.9375-.09375 7.15078.9886 14.34893-.14858 21.46875-.09375zm-36.40625.1875c-3.94791-.06806-7.90956-.14442-11.90625-.15625 .70234.1359 1.40607.28886 2.09375.46875 3.264.0088 6.53461-.16171 9.8125-.3125zm-11.90625-.15625c-3.78096-.73162-7.76451-.87023-11.8125-.71875 1.9999.10799 3.94723.36489 5.84375.78125 1.98823-.04844 3.98778-.06836 5.96875-.0625zm-64.03125-.875c-2.18034.06093-4.30919.40474-6.4375.78125 3.31384-.0016 6.54143.03183 8.75.09375 2.05203-.03282 4.10642-.02686 6.15625,0-1.20179-.1268-2.41546-.29902-3.625-.46875-1.64178-.36473-3.25601-.45062-4.84375-.40625zm-6.4375.78125c-2.08039.00099-4.02577-.0154-5.96875,0l.6875.8125c1.76238-.19752 3.51937-.50081 5.28125-.8125zm55.8125-.6875c-6.57185-.02743-13.45075.90133-19.96875.5625-7.03314.58331-13.97643.31011-20.90625.21875 8.48347.89276 16.79293.76937 25.21875.71875 5.93044-.34017 12.15756-1.19284 18.25-1.4375-.85665-.04196-1.72399-.05887-2.59375-.0625zm223.34375.59375-4.5.25c-.95857.11186-1.90194.15864-2.84375.1875 2.60152.01126 5.09002-.08244 7.34375-.4375z" fill="#e9b96e" opacity=".3" stroke="#e9b96e"/>
  <path d="m135.4375,102.34375c-3.36136.0183-6.745.33776-10.125.71875 2.24873.13743 4.47133.32715 6.6875.59375 4.57667.40617 9.13353.22905 13.65625-.0625-3.36762-.95466-6.78686-1.26869-10.21875-1.25zm10.21875,1.25 .25.0625c8.59665-.47624 17.10395-.0607 25.625.1875-8.54693-1.78516-17.15966-.81182-25.875-.25zm25.875.25c.99805.20846 2.00393.42878 3,.71875 1.0327-.2497 2.06395-.43544 3.09375-.59375-2.03209-.0259-4.06356-.0659-6.09375-.125zm6.09375.125c.86103.011 1.73271.0289 2.59375.0312l.3125-.375c-.96662.0822-1.93882.19503-2.90625.34375zm-52.3125-.90625c-7.15587-.43733-14.42474-.23323-21.53125.40625 2.78499.14378 5.5854.34993 8.40625.6875 4.34885-.008 8.72469-.59776 13.125-1.09375zm-21.53125.40625c-7.66084-.39551-15.24663-.17768-22.875.21875 4.16904.32338 8.35537.73419 12.53125,1.03125 3.38564-.51288 6.84155-.93485 10.34375-1.25zm-22.875.21875c-7.92142-.61444-15.82265-.94492-23.53125.25-.91145.0643-1.80966.0771-2.71875.125 6.0944.63888 12.11276,1.11653 17.9375.0937 2.78821-.159 5.55129-.32525 8.3125-.46875zm-26.25.375c-8.70665-.91273-17.55418-2.18736-26.21875-.125-.27892.0363-.56461.0628-.84375.0937 9.0521.25674 18.00021.50899 27.0625.0312zm-27.0625-.0312c-4.65654-.13207-9.35819-.25012-14.09375-.25-1.86132-.1639-3.72031-.24013-5.59375-.25 6.63124.49691 13.18447,1.21976 19.6875.5zm-19.6875-.5c-6.06263-.4543-12.18865-.70456-18.375.5-9.4905-1.11652-19.01974-.62718-28.53125-.21875 6.45596.10224 12.86127.14792 19.15625-.125 9.23934,1.18794 18.54917-.20474 27.75-.15625zm-46.90625.2812c-5.15427-.0816-10.34379-.20226-15.5625-.21875 .86323.15807 1.7164.35666 2.5625.5625 4.31982.0108 8.66159-.15745 13-.34375zm-15.5625-.21875c-5.09347-.93271-10.47371-1.05255-15.9375-.84375 2.74628.12108 5.43265.37568 8.03125.90625 2.63949-.0598 5.27665-.0708 7.90625-.0625zm-15.9375-.84375c-8.41604-.37104-17.38633.71865-25.96875.65625l.96875,1.0625h1.375c7.67179-.40925 15.74188-1.41749 23.625-1.71875z" fill="#e9b96e" opacity=".3" stroke="#e9b96e"/>
  <path d="m-50.25,99.875c-3.43308-.0155-6.84999.2373-10.21875,1.03125 4.52272.24227 9.07958.40005 13.65625.0625 2.20994-.22092 4.44516-.38584 6.6875-.5-3.38-.31659-6.76364-.57854-10.125-.59375zm10.125.59375c4.40031.41216 8.8074.86812 13.15625.875 2.78608-.27705 5.53025-.44277 8.28125-.5625-7.08254-.52616-14.30748-.67552-21.4375-.3125zm21.4375.3125c3.5347.26259 7.05241.60119 10.46875,1.03125 4.16807-.24639 8.33872-.54404 12.5-.8125-7.66255-.3309-15.27264-.5537-22.96875-.21875zm22.96875.21875c2.76122.11924 5.52429.24288 8.3125.375 5.82185.84949 11.8462.46797 17.9375-.0625-.90909-.0398-1.8073-.0715-2.71875-.125-7.71619-.99393-15.60194-.69905-23.53125-.1875zm26.25.3125c9.03384.39574 17.97693.18166 27-.0312-.25868-.0241-.52275-.0657-.78125-.0937-8.66758-1.71437-17.50918-.66475-26.21875.0937v.0312zm27-.0312c6.53583.60875 13.14716-.023 19.8125-.4375-1.8944.007-3.77422.0498-5.65625.1875-4.76447-.00011-9.4716.13947-14.15625.25zm19.8125-.4375c9.18055-.0348 18.46909,1.14116 27.6875.15625 6.35609.22899 12.82388.18041 19.34375.0937-9.56583-.34047-19.17373-.77688-28.71875.15625-6.1731-.99882-12.2626-.78227-18.3125-.40625zm47.03125.25c4.28363.15247 8.54709.29014 12.8125.28125 .87553-.177 1.76241-.33419 2.65625-.46875-5.18199.0128-10.35.11947-15.46875.1875zm15.46875-.1875c2.60321-.006 5.19961.0136 7.8125.0625 2.59286-.43992 5.29129-.64903 8.03125-.75-5.43158-.1725-10.77701-.0752-15.84375.6875zm15.84375-.6875c7.88312.25034 15.95321,1.06617 23.625,1.40625 .99379.005 1.97712-.005 2.96875,0l.8125-.90625c-9.02545.18269-18.50764-.82793-27.40625-.5zm-216.15625.6875c-8.76828-.4697-17.43331-1.30221-26.03125.21875 8.57299-.20578 17.13228-.5544 25.78125-.15625l.25-.0625zm-26.03125.2187c-1.97836.0475-3.95731.0728-5.9375.0937 1.0298.13155 2.06105.29251 3.09375.5 .94426-.22842 1.89772-.4264 2.84375-.59375zm-5.9375.0937c-2.1034-.26869-4.18637-.37063-6.28125-.40625l.21875.28125 .125.125c1.98309.0246 3.95613.021 5.9375,0z" fill="#e9b96e" opacity=".3" stroke="#e9b96e"/>
  <g transform="matrix(.98952 0 0 -1 -.31651 375)" fill="#e9b96e" stroke="#e9b96e" stroke-width="1.0053">
   <path d="m121.53125,97c-2.56107.015-5.14347.28228-7.71875.59375 1.70338.1135 3.38351.28282 5.0625.5 3.51054.335 6.99948.17736 10.46875-.0625-2.5823-.78348-5.18115-1.04666-7.8125-1.03125zm7.8125,1.03125 .21875.0625c6.61914-.39429 13.18906-.08028 19.75.125-6.58802-1.48109-13.25065-.65198-19.96875-.1875zm19.96875.1875c.76572.17214 1.51704.38579 2.28125.625 .78001-.2028 1.60101-.36693 2.4375-.5-1.57162-.02122-3.14861-.07587-4.71875-.125zm4.71875.125c3.43448.04638 6.85678.01971 10.3125-.25 4.02535-.16438 7.87459.26928 11.8125.1875-7.32517-.06539-15.52404-.98759-22.125.0625zm-40.21875-.75c-5.53732-.36895-11.15654-.22053-16.65625.3125 2.14661.11891 4.29446.28272 6.46875.5625 3.37071-.0069 6.77688-.4625 10.1875-.875zm-16.65625.3125c-5.89728-.32667-11.72122-.14096-17.59375.1875 3.20829.26756 6.41144.59794 9.625.84375 2.5987-.4233 5.28073-.77073 7.96875-1.03125zm-17.59375.1875c-6.09362-.50818-12.16383-.76964-18.09375.21875-.71095.05396-1.41592.08499-2.125.125 4.69586.52976 9.35583.90986 13.84375.0625 2.13768-.13108 4.25797-.28784 6.375-.40625zm-20.21875.34375c-6.6919-.75494-13.49693-1.82937-20.15625-.125-.22123.031-.43484.03629-.65625.0625 6.95539.21211 13.84952.45543 20.8125.0625zm-20.8125-.0625c-3.58186-.10923-7.16987-.21885-10.8125-.21875-1.39008-.13162-2.78859-.14548-4.1875-.15625 5.04665.41006 10.04984.96097 15,.375zm-15-.375c-4.71085-.38277-9.44208-.63162-14.25.375-7.36124-.9312-14.77906-.52687-22.15625-.1875 5.0285.08669 10.03556.13477 14.9375-.09375 7.15078.9886 14.34893-.14858 21.46875-.09375zm-36.40625.1875c-3.94791-.06806-7.90956-.14442-11.90625-.15625 .70234.1359 1.40607.28886 2.09375.46875 3.264.0088 6.53461-.16171 9.8125-.3125zm-11.90625-.15625c-3.78096-.73162-7.76451-.87023-11.8125-.71875 1.9999.10799 3.94723.36489 5.84375.78125 1.98823-.04844 3.98778-.06836 5.96875-.0625zm-64.03125-.875c-2.18034.06093-4.30919.40474-6.4375.78125 3.31384-.0016 6.54143.03183 8.75.09375 2.05203-.03282 4.10642-.02686 6.15625,0-1.20179-.1268-2.41546-.29902-3.625-.46875-1.64178-.36473-3.25601-.45062-4.84375-.40625zm-6.4375.78125c-2.08039.00099-4.02577-.0154-5.96875,0l.6875.8125c1.76238-.19752 3.51937-.50081 5.28125-.8125zm55.8125-.6875c-6.57185-.02743-13.45075.90133-19.96875.5625-7.03314.58331-13.97643.31011-20.90625.21875 8.48347.89276 16.79293.76937 25.21875.71875 5.93044-.34017 12.15756-1.19284 18.25-1.4375-.85665-.04196-1.72399-.05887-2.59375-.0625zm223.34375.59375-4.5.25c-.95857.11186-1.90194.15864-2.84375.1875 2.60152.01126 5.09002-.08244 7.34375-.4375z" opacity=".3"/>
   <path d="m135.4375,102.34375c-3.36136.0183-6.745.33776-10.125.71875 2.24873.13743 4.47133.32715 6.6875.59375 4.57667.40617 9.13353.22905 13.65625-.0625-3.36762-.95466-6.78686-1.26869-10.21875-1.25zm10.21875,1.25 .25.0625c8.59665-.47624 17.10395-.0607 25.625.1875-8.54693-1.78516-17.15966-.81182-25.875-.25zm25.875.25c.99805.20846 2.00393.42878 3,.71875 1.0327-.2497 2.06395-.43544 3.09375-.59375-2.03209-.0259-4.06356-.0659-6.09375-.125zm6.09375.125c.86103.011 1.73271.0289 2.59375.0312l.3125-.375c-.96662.0822-1.93882.19503-2.90625.34375zm-52.3125-.90625c-7.15587-.43733-14.42474-.23323-21.53125.40625 2.78499.14378 5.5854.34993 8.40625.6875 4.34885-.008 8.72469-.59776 13.125-1.09375zm-21.53125.40625c-7.66084-.39551-15.24663-.17768-22.875.21875 4.16904.32338 8.35537.73419 12.53125,1.03125 3.38564-.51288 6.84155-.93485 10.34375-1.25zm-22.875.21875c-7.92142-.61444-15.82265-.94492-23.53125.25-.91145.0643-1.80966.0771-2.71875.125 6.0944.63888 12.11276,1.11653 17.9375.0937 2.78821-.159 5.55129-.32525 8.3125-.46875zm-26.25.375c-8.70665-.91273-17.55418-2.18736-26.21875-.125-.27892.0363-.56461.0628-.84375.0937 9.0521.25674 18.00021.50899 27.0625.0312zm-27.0625-.0312c-4.65654-.13207-9.35819-.25012-14.09375-.25-1.86132-.1639-3.72031-.24013-5.59375-.25 6.63124.49691 13.18447,1.21976 19.6875.5zm-19.6875-.5c-6.06263-.4543-12.18865-.70456-18.375.5-9.4905-1.11652-19.01974-.62718-28.53125-.21875 6.45596.10224 12.86127.14792 19.15625-.125 9.23934,1.18794 18.54917-.20474 27.75-.15625zm-46.90625.2812c-5.15427-.0816-10.34379-.20226-15.5625-.21875 .86323.15807 1.7164.35666 2.5625.5625 4.31982.0108 8.66159-.15745 13-.34375zm-15.5625-.21875c-5.09347-.93271-10.47371-1.05255-15.9375-.84375 2.74628.12108 5.43265.37568 8.03125.90625 2.63949-.0598 5.27665-.0708 7.90625-.0625zm-15.9375-.84375c-8.41604-.37104-17.38633.71865-25.96875.65625l.96875,1.0625h1.375c7.67179-.40925 15.74188-1.41749 23.625-1.71875z" opacity=".3"/>
   <path d="m-50.25,99.875c-3.43308-.0155-6.84999.2373-10.21875,1.03125 4.52272.24227 9.07958.40005 13.65625.0625 2.20994-.22092 4.44516-.38584 6.6875-.5-3.38-.31659-6.76364-.57854-10.125-.59375zm10.125.59375c4.40031.41216 8.8074.86812 13.15625.875 2.78608-.27705 5.53025-.44277 8.28125-.5625-7.08254-.52616-14.30748-.67552-21.4375-.3125zm21.4375.3125c3.5347.26259 7.05241.60119 10.46875,1.03125 4.16807-.24639 8.33872-.54404 12.5-.8125-7.66255-.3309-15.27264-.5537-22.96875-.21875zm22.96875.21875c2.76122.11924 5.52429.24288 8.3125.375 5.82185.84949 11.8462.46797 17.9375-.0625-.90909-.0398-1.8073-.0715-2.71875-.125-7.71619-.99393-15.60194-.69905-23.53125-.1875zm26.25.3125c9.03384.39574 17.97693.18166 27-.0312-.25868-.0241-.52275-.0657-.78125-.0937-8.66758-1.71437-17.50918-.66475-26.21875.0937v.0312zm27-.0312c6.53583.60875 13.14716-.023 19.8125-.4375-1.8944.007-3.77422.0498-5.65625.1875-4.76447-.00011-9.4716.13947-14.15625.25zm19.8125-.4375c9.18055-.0348 18.46909,1.14116 27.6875.15625 6.35609.22899 12.82388.18041 19.34375.0937-9.56583-.34047-19.17373-.77688-28.71875.15625-6.1731-.99882-12.2626-.78227-18.3125-.40625zm47.03125.25c4.28363.15247 8.54709.29014 12.8125.28125 .87553-.177 1.76241-.33419 2.65625-.46875-5.18199.0128-10.35.11947-15.46875.1875zm15.46875-.1875c2.60321-.006 5.19961.0136 7.8125.0625 2.59286-.43992 5.29129-.64903 8.03125-.75-5.43158-.1725-10.77701-.0752-15.84375.6875zm15.84375-.6875c7.88312.25034 15.95321,1.06617 23.625,1.40625 .99379.005 1.97712-.005 2.96875,0l.8125-.90625c-9.02545.18269-18.50764-.82793-27.40625-.5zm-216.15625.6875c-8.76828-.4697-17.43331-1.30221-26.03125.21875 8.57299-.20578 17.13228-.5544 25.78125-.15625l.25-.0625zm-26.03125.2187c-1.97836.0475-3.95731.0728-5.9375.0937 1.0298.13155 2.06105.29251 3.09375.5 .94426-.22842 1.89772-.4264 2.84375-.59375zm-5.9375.0937c-2.1034-.26869-4.18637-.37063-6.28125-.40625l.21875.28125 .125.125c1.98309.0246 3.95613.021 5.9375,0z" opacity=".3"/>
  </g>
  <g transform="matrix(0 .60856 -1 0 283.72 163.21)" fill="#e9b96e" stroke="#e9b96e" stroke-width="1.2819">
   <path d="m121.53125,97c-2.56107.015-5.14347.28228-7.71875.59375 1.70338.1135 3.38351.28282 5.0625.5 3.51054.335 6.99948.17736 10.46875-.0625-2.5823-.78348-5.18115-1.04666-7.8125-1.03125zm7.8125,1.03125 .21875.0625c6.61914-.39429 13.18906-.08028 19.75.125-6.58802-1.48109-13.25065-.65198-19.96875-.1875zm19.96875.1875c.76572.17214 1.51704.38579 2.28125.625 .78001-.2028 1.60101-.36693 2.4375-.5-1.57162-.02122-3.14861-.07587-4.71875-.125zm4.71875.125c3.43448.04638 6.85678.01971 10.3125-.25 4.02535-.16438 7.87459.26928 11.8125.1875-7.32517-.06539-15.52404-.98759-22.125.0625zm-40.21875-.75c-5.53732-.36895-11.15654-.22053-16.65625.3125 2.14661.11891 4.29446.28272 6.46875.5625 3.37071-.0069 6.77688-.4625 10.1875-.875zm-16.65625.3125c-5.89728-.32667-11.72122-.14096-17.59375.1875 3.20829.26756 6.41144.59794 9.625.84375 2.5987-.4233 5.28073-.77073 7.96875-1.03125zm-17.59375.1875c-6.09362-.50818-12.16383-.76964-18.09375.21875-.71095.05396-1.41592.08499-2.125.125 4.69586.52976 9.35583.90986 13.84375.0625 2.13768-.13108 4.25797-.28784 6.375-.40625zm-20.21875.34375c-6.6919-.75494-13.49693-1.82937-20.15625-.125-.22123.031-.43484.03629-.65625.0625 6.95539.21211 13.84952.45543 20.8125.0625zm-20.8125-.0625c-3.58186-.10923-7.16987-.21885-10.8125-.21875-1.39008-.13162-2.78859-.14548-4.1875-.15625 5.04665.41006 10.04984.96097 15,.375zm-15-.375c-4.71085-.38277-9.44208-.63162-14.25.375-7.36124-.9312-14.77906-.52687-22.15625-.1875 5.0285.08669 10.03556.13477 14.9375-.09375 7.15078.9886 14.34893-.14858 21.46875-.09375zm-36.40625.1875c-3.94791-.06806-7.90956-.14442-11.90625-.15625 .70234.1359 1.40607.28886 2.09375.46875 3.264.0088 6.53461-.16171 9.8125-.3125zm-11.90625-.15625c-3.78096-.73162-7.76451-.87023-11.8125-.71875 1.9999.10799 3.94723.36489 5.84375.78125 1.98823-.04844 3.98778-.06836 5.96875-.0625zm-64.03125-.875c-2.18034.06093-4.30919.40474-6.4375.78125 3.31384-.0016 6.54143.03183 8.75.09375 2.05203-.03282 4.10642-.02686 6.15625,0-1.20179-.1268-2.41546-.29902-3.625-.46875-1.64178-.36473-3.25601-.45062-4.84375-.40625zm-6.4375.78125c-2.08039.00099-4.02577-.0154-5.96875,0l.6875.8125c1.76238-.19752 3.51937-.50081 5.28125-.8125zm55.8125-.6875c-6.57185-.02743-13.45075.90133-19.96875.5625-7.03314.58331-13.97643.31011-20.90625.21875 8.48347.89276 16.79293.76937 25.21875.71875 5.93044-.34017 12.15756-1.19284 18.25-1.4375-.85665-.04196-1.72399-.05887-2.59375-.0625zm223.34375.59375-4.5.25c-.95857.11186-1.90194.15864-2.84375.1875 2.60152.01126 5.09002-.08244 7.34375-.4375z" opacity=".3"/>
   <path d="m135.4375,102.34375c-3.36136.0183-6.745.33776-10.125.71875 2.24873.13743 4.47133.32715 6.6875.59375 4.57667.40617 9.13353.22905 13.65625-.0625-3.36762-.95466-6.78686-1.26869-10.21875-1.25zm10.21875,1.25 .25.0625c8.59665-.47624 17.10395-.0607 25.625.1875-8.54693-1.78516-17.15966-.81182-25.875-.25zm25.875.25c.99805.20846 2.00393.42878 3,.71875 1.0327-.2497 2.06395-.43544 3.09375-.59375-2.03209-.0259-4.06356-.0659-6.09375-.125zm6.09375.125c.86103.011 1.73271.0289 2.59375.0312l.3125-.375c-.96662.0822-1.93882.19503-2.90625.34375zm-52.3125-.90625c-7.15587-.43733-14.42474-.23323-21.53125.40625 2.78499.14378 5.5854.34993 8.40625.6875 4.34885-.008 8.72469-.59776 13.125-1.09375zm-21.53125.40625c-7.66084-.39551-15.24663-.17768-22.875.21875 4.16904.32338 8.35537.73419 12.53125,1.03125 3.38564-.51288 6.84155-.93485 10.34375-1.25zm-22.875.21875c-7.92142-.61444-15.82265-.94492-23.53125.25-.91145.0643-1.80966.0771-2.71875.125 6.0944.63888 12.11276,1.11653 17.9375.0937 2.78821-.159 5.55129-.32525 8.3125-.46875zm-26.25.375c-8.70665-.91273-17.55418-2.18736-26.21875-.125-.27892.0363-.56461.0628-.84375.0937 9.0521.25674 18.00021.50899 27.0625.0312zm-27.0625-.0312c-4.65654-.13207-9.35819-.25012-14.09375-.25-1.86132-.1639-3.72031-.24013-5.59375-.25 6.63124.49691 13.18447,1.21976 19.6875.5zm-19.6875-.5c-6.06263-.4543-12.18865-.70456-18.375.5-9.4905-1.11652-19.01974-.62718-28.53125-.21875 6.45596.10224 12.86127.14792 19.15625-.125 9.23934,1.18794 18.54917-.20474 27.75-.15625zm-46.90625.2812c-5.15427-.0816-10.34379-.20226-15.5625-.21875 .86323.15807 1.7164.35666 2.5625.5625 4.31982.0108 8.66159-.15745 13-.34375zm-15.5625-.21875c-5.09347-.93271-10.47371-1.05255-15.9375-.84375 2.74628.12108 5.43265.37568 8.03125.90625 2.63949-.0598 5.27665-.0708 7.90625-.0625zm-15.9375-.84375c-8.41604-.37104-17.38633.71865-25.96875.65625l.96875,1.0625h1.375c7.67179-.40925 15.74188-1.41749 23.625-1.71875z" opacity=".3"/>
   <path d="m-50.25,99.875c-3.43308-.0155-6.84999.2373-10.21875,1.03125 4.52272.24227 9.07958.40005 13.65625.0625 2.20994-.22092 4.44516-.38584 6.6875-.5-3.38-.31659-6.76364-.57854-10.125-.59375zm10.125.59375c4.40031.41216 8.8074.86812 13.15625.875 2.78608-.27705 5.53025-.44277 8.28125-.5625-7.08254-.52616-14.30748-.67552-21.4375-.3125zm21.4375.3125c3.5347.26259 7.05241.60119 10.46875,1.03125 4.16807-.24639 8.33872-.54404 12.5-.8125-7.66255-.3309-15.27264-.5537-22.96875-.21875zm22.96875.21875c2.76122.11924 5.52429.24288 8.3125.375 5.82185.84949 11.8462.46797 17.9375-.0625-.90909-.0398-1.8073-.0715-2.71875-.125-7.71619-.99393-15.60194-.69905-23.53125-.1875zm26.25.3125c9.03384.39574 17.97693.18166 27-.0312-.25868-.0241-.52275-.0657-.78125-.0937-8.66758-1.71437-17.50918-.66475-26.21875.0937v.0312zm27-.0312c6.53583.60875 13.14716-.023 19.8125-.4375-1.8944.007-3.77422.0498-5.65625.1875-4.76447-.00011-9.4716.13947-14.15625.25zm19.8125-.4375c9.18055-.0348 18.46909,1.14116 27.6875.15625 6.35609.22899 12.82388.18041 19.34375.0937-9.56583-.34047-19.17373-.77688-28.71875.15625-6.1731-.99882-12.2626-.78227-18.3125-.40625zm47.03125.25c4.28363.15247 8.54709.29014 12.8125.28125 .87553-.177 1.76241-.33419 2.65625-.46875-5.18199.0128-10.35.11947-15.46875.1875zm15.46875-.1875c2.60321-.006 5.19961.0136 7.8125.0625 2.59286-.43992 5.29129-.64903 8.03125-.75-5.43158-.1725-10.77701-.0752-15.84375.6875zm15.84375-.6875c7.88312.25034 15.95321,1.06617 23.625,1.40625 .99379.005 1.97712-.005 2.96875,0l.8125-.90625c-9.02545.18269-18.50764-.82793-27.40625-.5zm-216.15625.6875c-8.76828-.4697-17.43331-1.30221-26.03125.21875 8.57299-.20578 17.13228-.5544 25.78125-.15625l.25-.0625zm-26.03125.2187c-1.97836.0475-3.95731.0728-5.9375.0937 1.0298.13155 2.06105.29251 3.09375.5 .94426-.22842 1.89772-.4264 2.84375-.59375zm-5.9375.0937c-2.1034-.26869-4.18637-.37063-6.28125-.40625l.21875.28125 .125.125c1.98309.0246 3.95613.021 5.9375,0z" opacity=".3"/>
  </g>
  <g transform="matrix(0 .60856 1 0 -201.53 161.71)" fill="#e9b96e" stroke="#e9b96e" stroke-width="1.2819">
   <path d="m121.53125,97c-2.56107.015-5.14347.28228-7.71875.59375 1.70338.1135 3.38351.28282 5.0625.5 3.51054.335 6.99948.17736 10.46875-.0625-2.5823-.78348-5.18115-1.04666-7.8125-1.03125zm7.8125,1.03125 .21875.0625c6.61914-.39429 13.18906-.08028 19.75.125-6.58802-1.48109-13.25065-.65198-19.96875-.1875zm19.96875.1875c.76572.17214 1.51704.38579 2.28125.625 .78001-.2028 1.60101-.36693 2.4375-.5-1.57162-.02122-3.14861-.07587-4.71875-.125zm4.71875.125c3.43448.04638 6.85678.01971 10.3125-.25 4.02535-.16438 7.87459.26928 11.8125.1875-7.32517-.06539-15.52404-.98759-22.125.0625zm-40.21875-.75c-5.53732-.36895-11.15654-.22053-16.65625.3125 2.14661.11891 4.29446.28272 6.46875.5625 3.37071-.0069 6.77688-.4625 10.1875-.875zm-16.65625.3125c-5.89728-.32667-11.72122-.14096-17.59375.1875 3.20829.26756 6.41144.59794 9.625.84375 2.5987-.4233 5.28073-.77073 7.96875-1.03125zm-17.59375.1875c-6.09362-.50818-12.16383-.76964-18.09375.21875-.71095.05396-1.41592.08499-2.125.125 4.69586.52976 9.35583.90986 13.84375.0625 2.13768-.13108 4.25797-.28784 6.375-.40625zm-20.21875.34375c-6.6919-.75494-13.49693-1.82937-20.15625-.125-.22123.031-.43484.03629-.65625.0625 6.95539.21211 13.84952.45543 20.8125.0625zm-20.8125-.0625c-3.58186-.10923-7.16987-.21885-10.8125-.21875-1.39008-.13162-2.78859-.14548-4.1875-.15625 5.04665.41006 10.04984.96097 15,.375zm-15-.375c-4.71085-.38277-9.44208-.63162-14.25.375-7.36124-.9312-14.77906-.52687-22.15625-.1875 5.0285.08669 10.03556.13477 14.9375-.09375 7.15078.9886 14.34893-.14858 21.46875-.09375zm-36.40625.1875c-3.94791-.06806-7.90956-.14442-11.90625-.15625 .70234.1359 1.40607.28886 2.09375.46875 3.264.0088 6.53461-.16171 9.8125-.3125zm-11.90625-.15625c-3.78096-.73162-7.76451-.87023-11.8125-.71875 1.9999.10799 3.94723.36489 5.84375.78125 1.98823-.04844 3.98778-.06836 5.96875-.0625zm-64.03125-.875c-2.18034.06093-4.30919.40474-6.4375.78125 3.31384-.0016 6.54143.03183 8.75.09375 2.05203-.03282 4.10642-.02686 6.15625,0-1.20179-.1268-2.41546-.29902-3.625-.46875-1.64178-.36473-3.25601-.45062-4.84375-.40625zm-6.4375.78125c-2.08039.00099-4.02577-.0154-5.96875,0l.6875.8125c1.76238-.19752 3.51937-.50081 5.28125-.8125zm55.8125-.6875c-6.57185-.02743-13.45075.90133-19.96875.5625-7.03314.58331-13.97643.31011-20.90625.21875 8.48347.89276 16.79293.76937 25.21875.71875 5.93044-.34017 12.15756-1.19284 18.25-1.4375-.85665-.04196-1.72399-.05887-2.59375-.0625zm223.34375.59375-4.5.25c-.95857.11186-1.90194.15864-2.84375.1875 2.60152.01126 5.09002-.08244 7.34375-.4375z" opacity=".3"/>
   <path d="m135.4375,102.34375c-3.36136.0183-6.745.33776-10.125.71875 2.24873.13743 4.47133.32715 6.6875.59375 4.57667.40617 9.13353.22905 13.65625-.0625-3.36762-.95466-6.78686-1.26869-10.21875-1.25zm10.21875,1.25 .25.0625c8.59665-.47624 17.10395-.0607 25.625.1875-8.54693-1.78516-17.15966-.81182-25.875-.25zm25.875.25c.99805.20846 2.00393.42878 3,.71875 1.0327-.2497 2.06395-.43544 3.09375-.59375-2.03209-.0259-4.06356-.0659-6.09375-.125zm6.09375.125c.86103.011 1.73271.0289 2.59375.0312l.3125-.375c-.96662.0822-1.93882.19503-2.90625.34375zm-52.3125-.90625c-7.15587-.43733-14.42474-.23323-21.53125.40625 2.78499.14378 5.5854.34993 8.40625.6875 4.34885-.008 8.72469-.59776 13.125-1.09375zm-21.53125.40625c-7.66084-.39551-15.24663-.17768-22.875.21875 4.16904.32338 8.35537.73419 12.53125,1.03125 3.38564-.51288 6.84155-.93485 10.34375-1.25zm-22.875.21875c-7.92142-.61444-15.82265-.94492-23.53125.25-.91145.0643-1.80966.0771-2.71875.125 6.0944.63888 12.11276,1.11653 17.9375.0937 2.78821-.159 5.55129-.32525 8.3125-.46875zm-26.25.375c-8.70665-.91273-17.55418-2.18736-26.21875-.125-.27892.0363-.56461.0628-.84375.0937 9.0521.25674 18.00021.50899 27.0625.0312zm-27.0625-.0312c-4.65654-.13207-9.35819-.25012-14.09375-.25-1.86132-.1639-3.72031-.24013-5.59375-.25 6.63124.49691 13.18447,1.21976 19.6875.5zm-19.6875-.5c-6.06263-.4543-12.18865-.70456-18.375.5-9.4905-1.11652-19.01974-.62718-28.53125-.21875 6.45596.10224 12.86127.14792 19.15625-.125 9.23934,1.18794 18.54917-.20474 27.75-.15625zm-46.90625.2812c-5.15427-.0816-10.34379-.20226-15.5625-.21875 .86323.15807 1.7164.35666 2.5625.5625 4.31982.0108 8.66159-.15745 13-.34375zm-15.5625-.21875c-5.09347-.93271-10.47371-1.05255-15.9375-.84375 2.74628.12108 5.43265.37568 8.03125.90625 2.63949-.0598 5.27665-.0708 7.90625-.0625zm-15.9375-.84375c-8.41604-.37104-17.38633.71865-25.96875.65625l.96875,1.0625h1.375c7.67179-.40925 15.74188-1.41749 23.625-1.71875z" opacity=".3"/>
   <path d="m-50.25,99.875c-3.43308-.0155-6.84999.2373-10.21875,1.03125 4.52272.24227 9.07958.40005 13.65625.0625 2.20994-.22092 4.44516-.38584 6.6875-.5-3.38-.31659-6.76364-.57854-10.125-.59375zm10.125.59375c4.40031.41216 8.8074.86812 13.15625.875 2.78608-.27705 5.53025-.44277 8.28125-.5625-7.08254-.52616-14.30748-.67552-21.4375-.3125zm21.4375.3125c3.5347.26259 7.05241.60119 10.46875,1.03125 4.16807-.24639 8.33872-.54404 12.5-.8125-7.66255-.3309-15.27264-.5537-22.96875-.21875zm22.96875.21875c2.76122.11924 5.52429.24288 8.3125.375 5.82185.84949 11.8462.46797 17.9375-.0625-.90909-.0398-1.8073-.0715-2.71875-.125-7.71619-.99393-15.60194-.69905-23.53125-.1875zm26.25.3125c9.03384.39574 17.97693.18166 27-.0312-.25868-.0241-.52275-.0657-.78125-.0937-8.66758-1.71437-17.50918-.66475-26.21875.0937v.0312zm27-.0312c6.53583.60875 13.14716-.023 19.8125-.4375-1.8944.007-3.77422.0498-5.65625.1875-4.76447-.00011-9.4716.13947-14.15625.25zm19.8125-.4375c9.18055-.0348 18.46909,1.14116 27.6875.15625 6.35609.22899 12.82388.18041 19.34375.0937-9.56583-.34047-19.17373-.77688-28.71875.15625-6.1731-.99882-12.2626-.78227-18.3125-.40625zm47.03125.25c4.28363.15247 8.54709.29014 12.8125.28125 .87553-.177 1.76241-.33419 2.65625-.46875-5.18199.0128-10.35.11947-15.46875.1875zm15.46875-.1875c2.60321-.006 5.19961.0136 7.8125.0625 2.59286-.43992 5.29129-.64903 8.03125-.75-5.43158-.1725-10.77701-.0752-15.84375.6875zm15.84375-.6875c7.88312.25034 15.95321,1.06617 23.625,1.40625 .99379.005 1.97712-.005 2.96875,0l.8125-.90625c-9.02545.18269-18.50764-.82793-27.40625-.5zm-216.15625.6875c-8.76828-.4697-17.43331-1.30221-26.03125.21875 8.57299-.20578 17.13228-.5544 25.78125-.15625l.25-.0625zm-26.03125.2187c-1.97836.0475-3.95731.0728-5.9375.0937 1.0298.13155 2.06105.29251 3.09375.5 .94426-.22842 1.89772-.4264 2.84375-.59375zm-5.9375.0937c-2.1034-.26869-4.18637-.37063-6.28125-.40625l.21875.28125 .125.125c1.98309.0246 3.95613.021 5.9375,0z" opacity=".3"/>
  </g>
  <path d="m-103.79 279.18v7.4369h291.02v-7.4369h-291.02z" fill="#925b03"/>
  <path d="m183.44 280.29c-1.8216 0.0217-3.6824 0.13224-5.5504 0.31864-1.9772 0.12463-3.895 0.20655-5.8587 0.2974 3.2518-0.0202 6.4579-0.0234 9.7131 0 1.3187-0.0166 3.0357-0.0343 4.7486-0.0425v-0.53107c-0.41271-0.0112-0.84975-0.0373-1.2642-0.0425-0.60216-8e-3 -1.1812-7e-3 -1.7884 0zm-11.409 0.61604c-10.387 0.0644-20.818 0.24402-31.36-0.1487-11.22 0.262-23.181-0.58955-34.32-0.33988 9.2576 0.16557 18.74 0.7662 27.752 0.99841 12.657 0.0342 25.189 0.0795 37.927-0.50983zm-70.582-0.50983c-4.5716 7e-3 -9.0702 0.13319-13.383 0.50983 3.0298-5e-3 6.0554 9e-3 9.0964 0.0425 2.8682-0.28286 5.8256-0.4572 8.8498-0.53107-1.5394-0.0259-3.0398-0.0234-4.5636-0.0212zm-13.383 0.50983c-6.0704 8e-3 -12.135 0.0812-18.131 0.12746 5.0075 0.10363 10.031 0.19723 15.017 0.19118 1.0279-0.12079 2.0648-0.22697 3.1144-0.31864zm-18.131 0.12746c-11.157-0.23089-22.324-0.52639-33.456 0.10621-7.1972-0.67688-14.315-0.50951-21.369-0.25491 10.714-0.0234 21.588 0.75309 32.346 0.085 7.4054 0.15507 14.883 0.12231 22.479 0.0637zm-54.825-0.1487c-2.2119 5e-3 -4.4322 0.034-6.6296 0.12745-5.5303-6e-5 -10.997 0.053-16.435 0.12746 7.6086 0.40595 15.306 0.0251 23.065-0.25491zm-23.065 0.25491c-0.32957-0.0176-0.65743-5.1e-4 -0.98673-0.0212-10.086-1.1595-20.392-0.45058-30.527 0.0637 10.543 0.26601 20.982 0.10179 31.514-0.0425zm-31.514 0.0425c-1.091-0.0275-2.1747-0.0477-3.2686-0.085-8.9815-0.67247-18.122-0.4727-27.351-0.12746l9.6515 0.25491c6.8245 0.57881 13.827 0.31986 20.968-0.0425zm-30.619-0.21243c-8.9724-0.22572-17.877-0.37675-26.888-0.1487 4.1265 0.17815 8.1917 0.40919 12.18 0.70101 4.8899-0.16802 9.8266-0.3697 14.708-0.55231zm-26.888-0.1487c-1.899-0.082-3.819-0.13739-5.7354-0.19118v0.38236c1.9174-0.0814 3.8268-0.14288 5.7354-0.19118zm20.906 2.0606c-3.3329 0.0418-6.6142 0.29351-9.8673 0.55231 5.0506-1e-3 9.9865 0.0214 13.352 0.0637 3.2394-0.0233 6.4463-0.0196 9.6823 0-1.9492-0.0904-3.8654-0.19493-5.8279-0.31864-2.4906-0.24854-4.9302-0.32763-7.3388-0.2974zm13.167 0.61604c12.754 0.59154 25.287 0.54402 37.958 0.50982 9.0122-0.23221 18.494-0.83283 27.752-0.99841-11.139-0.24966-23.1 0.60188-34.32 0.33989-10.557 0.39332-20.988 0.21285-31.39 0.1487zm-23.034-0.0637c-6.8386 1e-3 -12.78 0.0304-16.774 0.0637v0.50982c5.6885 0.37988 11.208-0.13076 16.774-0.57355zm93.709-0.46734c-1.53 5e-5 -3.0781 0.0165-4.6253 0.0425 3.0241 0.0739 5.9816 0.24821 8.8497 0.53107 3.0568-0.0334 6.1434-0.047 9.1889-0.0425-4.3319-0.38174-8.8234-0.53122-13.413-0.53107zm13.413 0.53107c1.0198 0.0899 2.0225 0.17997 3.0219 0.2974 5.1243 6e-3 10.24-0.0841 15.387-0.19119-6.1049-0.0462-12.226-0.0972-18.409-0.10621zm18.409 0.10621c7.467 0.0566 14.888 0.0888 22.171-0.0637 10.768 0.66874 21.591-0.0887 32.315-0.0637-7.0649-0.25537-14.191-0.42307-21.4 0.25491-10.994-0.62474-22.067-0.35666-33.086-0.12746zm54.486-0.12745c7.7618 0.28055 15.453 0.66408 23.065 0.25491-5.454-0.0747-10.95-0.14876-16.497-0.1487-2.1875-0.093-4.3661-0.10107-6.5679-0.10621zm23.065 0.25491c10.531 0.14435 20.971 0.30974 31.514 0.0425-10.147-0.51442-20.46-1.2459-30.558-0.085-0.31508 0.0198-0.64058 0.0257-0.95589 0.0425zm31.514 0.0425c7.1286 0.36138 14.186 0.59908 20.999 0.0212 3.2581-0.0897 6.4866-0.15271 9.7131-0.23367-9.2611-0.3475-18.493-0.54731-27.505 0.12745-1.0786 0.0368-2.1311 0.0577-3.2069 0.085zm30.712-0.21243 7.123 0.27615v-0.42485c-2.3688 0.0425-4.7468 0.0891-7.123 0.1487zm-39.284 1.2533c-6.1256-5e-3 -12.15 0.10239-17.915 0.42486 3.9492-3e-3 7.9078-6e-3 11.872 0.0212 3.9335-0.24801 8.0542-0.36794 12.211-0.42486-2.06-0.0243-4.1252-0.0194-6.1671-0.0212zm6.1671 0.0212c11.959 0.14113 24.192 0.6155 35.831 0.80722h4.4094v-0.50982c-13.29 0.0583-27.176-0.47631-40.24-0.2974zm-24.082 0.40361c-7.8613 7e-3 -15.67 0.0679-23.435 0.10622 6.4984 0.086 12.955 0.15371 19.426 0.1487 1.3282-0.0998 2.6526-0.17906 4.0086-0.25492zm-23.435 0.10622c-14.512-0.19194-29.121-0.44108-43.601 0.085-9.3648-0.56308-18.574-0.44565-27.752-0.23367 13.927-0.0196 28.044 0.64021 42.029 0.085 9.6424 0.12909 19.434 0.11267 29.324 0.0637zm-71.353-0.1487c-2.8739 4e-3 -5.7171 0.0286-8.5722 0.10621-7.2278-6e-5 -14.385 0.0864-21.492 0.1487 9.9151 0.34318 19.953-0.0213 30.064-0.25491zm-30.064 0.25491c-0.39243-0.0136-0.81042-0.0479-1.2026-0.0637-13.149-0.96647-26.565-0.36379-39.778 0.0637 13.705 0.2231 27.292 0.11996 40.98 0zm-40.98 0c-1.3791-0.0224-2.7184-0.0336-4.1011-0.0637-11.706-0.56033-23.678-0.3946-35.707-0.10622l12.642 0.21243c8.8319 0.47889 17.925 0.25654 27.166-0.0425zm-39.808-0.16994c-6.4349-0.10327-12.819-0.18951-19.241-0.21243v0.65853c0.0965 5e-3 0.18113 0.0168 0.27752 0.0212 6.3231-0.13889 12.651-0.31599 18.964-0.46734zm25.593 1.317c-12.874-9e-3 -26.403 0.63281-39.161 0.40361-1.9073 0.0547-3.7744 0.0716-5.6737 0.10621v0.55232c4.7392 2e-3 9.4522-0.0114 14.215-0.0212 11.714-0.23222 24.044-0.8116 36.077-0.97717-1.8094-0.0312-3.6187-0.0625-5.4579-0.0637zm11.902 0.0212c-1.9811-2e-3 -3.9793 0.0166-5.9821 0.0425 3.9355 0.0738 7.7692 0.24789 11.502 0.53107 3.9567-0.0333 7.8986-0.0468 11.841-0.0425-5.6098-0.37757-11.417-0.52489-17.36-0.53107zm17.36 0.53107c1.3571 0.0913 2.7101 0.17721 4.0394 0.29739 6.4745 6e-3 12.986-0.0664 19.488-0.16994-7.7827-0.0462-15.648-0.11887-23.527-0.12745zm23.527 0.12745c9.8801 0.0587 19.661 0.0915 29.294-0.0637 13.969 0.66742 28.086-0.12796 41.998-0.10622-9.1667-0.25451-18.43-0.4006-27.783 0.27616-14.476-0.63288-29.001-0.33716-43.509-0.10621zm71.291-0.16994c10.087 0.28007 20.081 0.68224 29.972 0.27616-7.0638-0.0745-14.154-0.14877-21.338-0.1487-2.8708-0.094-5.7441-0.12295-8.6339-0.12746zm29.972 0.27616c13.693 0.14432 27.273 0.2873 40.98 0.0212-13.168-0.51426-26.613-1.2227-39.716-0.0637-0.42767 0.0207-0.83624 0.0249-1.2642 0.0425zm40.98 0.0212c9.2886 0.36277 18.474 0.62172 27.351 0.0425 4.2297-0.0896 8.3921-0.15278 12.581-0.23367-12.033-0.34727-23.998-0.56831-35.707 0.10621-1.4226 0.0373-2.8057 0.0574-4.2244 0.085zm39.932-0.19119 9.4048 0.27616v-0.42486c-3.1291 0.0431-6.2639 0.088-9.4048 0.1487z" fill="#e9b96e" opacity=".3" stroke="#e9b96e"/>
  <path d="m186 96.375v188l2.3125 2.7812-291.19-2 12 21.562h293.44l-11.562-17.406v-186.94l-5-6z" fill="#999" opacity=".36398"/>
  <g transform="translate(102.5,-50.75)">
   <path d="m-134.84 314.78c0.26783 0.8991 0.40625 1.8382 0.40625 2.7982 0 5.3634-4.419 3.7888-10.656 5.6512v1.3442c0 1.0957 1.0246 1.9953 2.4688 2.3318 0.0803 1.248 1.2138 2.2495 2.6562 2.2495h45.312c1.412 0 2.5642-0.95676 2.6875-2.1672 0.20457-0.0323 0.4041-0.0829 0.59375-0.13717 1.3208-0.37801 2.25-1.2412 2.25-2.277v-0.90529c-0.8933-0.18401-1.7661-0.31993-2.5938-0.43893-1.6552-0.238-3.155-0.3968-4.4688-0.60353-3.2843-0.51684-6.5812-0.3291-6.5812-3.987 0-0.72002 0.59683-2.4865 1.4562-3.173 0.18313-0.1463 0.12054-0.46105 0.1875-0.68583h-33.719z" opacity=".30612"/>
   <path transform="matrix(.12651 0 0 .19524 -42.486 172.29)" d="m-827.45 775.91h373.16a13.82 13.82 0 0 1 13.82 13.82v1.1517a13.82 13.82 0 0 1 -13.82 13.82h-373.16a13.82 13.82 0 0 1 -13.82 -13.82v-1.1517a13.82 13.82 0 0 1 13.82 -13.82" fill="url(#b)"/>
   <g transform="matrix(.12651 0 0 .09762 -41.474 256.35)">
    <path d="m-787.58 580.54c2.1172 10.492 3.2206 21.371 3.2206 32.574 0 62.586-34.902 44.434-84.205 66.166v15.473c0 16.116 12.948 29.113 29.063 29.113h384.27c16.115 0 29.063-12.998 29.063-29.113v-10.383c-56.49-17.178-98.03-2.96-98.03-71.256 0-11.203 1.1034-22.082 3.2205-32.574h-266.6z" fill="#e9b96e"/>
    <path d="m-787.58 580.54c2.1172 10.492 3.2206 21.371 3.2206 32.574 0 62.586-34.902 44.434-84.205 66.166v15.473c0 16.116 12.948 29.113 29.063 29.113h384.27c16.115 0 29.063-12.998 29.063-29.113v-10.383c-56.49-17.178-98.03-2.96-98.03-71.256 0-11.203 1.1034-22.082 3.2205-32.574h-266.6z" fill="url(#a)"/>
   </g>
  </g>
  <path d="m-71.40625,264.28125-1.40625.0312h-2.875l.1875,3.875 .0625,3h-.3125v3.0625h.375v.15625l-3.03125.0625v3.96875h3.125v.40625h3.96875v-.40625h9.71875v-.0937h.03125l-.03125-1.40625v-2.5625l9.15625,4.1875 .03125-.0937 .0625.0312 .75-1.75 1-2.1875-4.15625-1.65625-4.1875-1.84375v-.1875h-.40625l-6.71875-2.9375-1.4375,3.15625-3.8125.0312v-6.8125h-.09375v-.0312zm.21875,9.96875h5.125l-5.125.0937v-.0937z" opacity=".5"/>
  <path d="m-78.743 271.43 12.333-0.15349 4.4757-0.1535v3.3769h-16.809v-3.0699z" fill="#e5e5e5"/>
  <path d="m-75.547 272.19 1.2063 0.15868 0.19629 2.3585-1.3728-0.63758-0.02982-1.8796z" fill="#e5e5e5"/>
  <g transform="matrix(0 -.34357 .39784 0 -176.21 252.72)">
   <path d="m-76.75 246.11 31-0.5 11.25-0.5v11h-42.25v-10z" fill="#fff"/>
   <path d="m-44.25 246.61 1.75 2.5-3.5 3.75-1.25-3.5 3-2.75z" fill="#e5e5e5"/>
   <path d="m-58.053 247.7 3.0322 0.51686 0.4934 7.6824-3.4507-2.0768-0.07495-6.1225z" fill="#e5e5e5"/>
   <path d="m-37.678 247.32 3.0322-2.1081 0.2434 10.682-3.8257-0.82684 0.55005-7.7475z" fill="#e5e5e5"/>
   <path d="m-66.745 246.3 1.9505 2.3784-4.6648 6.124-1.2436-3.8307 3.9578-4.6718z" fill="#e5e5e5"/>
  </g>
  <g transform="matrix(.36173 .16561 -.16561 .36173 -.53313 191.88)">
   <path d="m-76.75 246.11 31-0.5 11.25-0.5v11h-42.25v-10z" fill="#fff"/>
   <path d="m-44.318 248.6 1.75 2.5-3.5 3.75-1.25-3.5 3-2.75z" fill="#e5e5e5"/>
   <path d="m-58.053 247.7 3.0322 0.51686 0.4934 7.6824-3.4507-2.0768-0.07495-6.1225z" fill="#e5e5e5"/>
   <path d="m-37.678 247.32 3.0322-2.1081 0.2434 10.682-3.8257-0.82684 0.55005-7.7475z" fill="#e5e5e5"/>
   <path d="m-61.484 245.85 2.2768 2.2291-7.4928 7.4188-1.0504-3.9191 6.2665-5.7288z" fill="#e5e5e5"/>
  </g>
  <g transform="matrix(.39784 0 0 .39784 -50.86 176.79)">
   <path d="m-76.75 246.11 31-0.5 11.25-0.5v11h-42.25v-10z" fill="#fff"/>
   <path d="m-44.25 246.61 1.75 2.5-3.5 3.75-1.25-3.5 3-2.75z" fill="#e5e5e5"/>
   <path d="m-58.053 247.7 3.0322 0.51686 0.4934 7.6824-3.4507-2.0768-0.07495-6.1225z" fill="#e5e5e5"/>
   <path d="m-37.678 247.32 3.0322-2.1081 0.2434 10.682-3.8257-0.82684 0.55005-7.7475z" fill="#e5e5e5"/>
   <path d="m-66.745 246.3 1.9505 2.3784-4.6648 6.124-1.2436-3.8307 3.9578-4.6718z" fill="#e5e5e5"/>
  </g>
 </g>
</svg>
